<svg xmlns="http://www.w3.org/2000/svg" width="52.072" height="52.075" viewBox="0 0 52.072 52.075">
  <g id="Email" transform="translate(-0.1 -0.075)">
    <path id="Path_4391" data-name="Path 4391" d="M52.121,19.8a.9.9,0,0,0-.051-.153.387.387,0,0,0-.092-.132.7.7,0,0,0-.112-.132c-.01-.01-.02-.031-.031-.041l-8.352-6.48V6.14a2.609,2.609,0,0,0-2.6-2.6H31.472L27.708.617a2.58,2.58,0,0,0-3.164,0L20.78,3.536H11.371a2.609,2.609,0,0,0-2.6,2.6v6.724L.426,19.344c-.01.01-.02.031-.031.041a.7.7,0,0,0-.112.132,1.488,1.488,0,0,0-.092.132.9.9,0,0,0-.051.153.517.517,0,0,0-.031.173c0,.02-.01.031-.01.051v29.52a2.623,2.623,0,0,0,.509,1.536.032.032,0,0,1,.01.02c.01.01.02.01.031.02A2.612,2.612,0,0,0,2.7,52.15H49.578a2.582,2.582,0,0,0,2.055-1.027c.01-.01.02-.01.02-.02a.032.032,0,0,0,.01-.02,2.6,2.6,0,0,0,.509-1.536V20.026c0-.02-.01-.031-.01-.051A1.064,1.064,0,0,0,52.121,19.8ZM25.612,1.98a.827.827,0,0,1,1.038,0l2,1.556H23.618ZM9.631,22.63a.864.864,0,0,0,.865-.865V6.14a.864.864,0,0,1,.865-.865h29.52a.864.864,0,0,1,.865.865V21.765a.865.865,0,0,0,1.729,0v-6.7l6.1,4.75L35.123,31.042a.87.87,0,1,0,1.068,1.373L50.443,21.348v27.71L27.708,31.408a2.58,2.58,0,0,0-3.164,0L1.819,49.057V21.348L16.04,32.4a.87.87,0,0,0,1.068-1.373L2.663,19.8l6.1-4.75v6.7A.866.866,0,0,0,9.631,22.63ZM49.344,50.41H2.908L25.6,32.782a.827.827,0,0,1,1.038,0Z" fill="#1c439b"/>
    <path id="Path_4392" data-name="Path 4392" d="M163.927,89.3a.865.865,0,1,0,0-1.729A8.677,8.677,0,1,1,172.6,78.9v3.469a1.739,1.739,0,0,1-3.479,0V78.9a.865.865,0,1,0-1.729,0,3.469,3.469,0,1,1-3.469-3.469.865.865,0,0,0,0-1.729,5.21,5.21,0,1,0,3.5,9.053,3.463,3.463,0,0,0,6.907-.366V78.916A10.417,10.417,0,1,0,163.927,89.3Z" transform="translate(-137.796 -61.465)" fill="#1c439b"/>
  </g>
</svg>
