<svg xmlns="http://www.w3.org/2000/svg" width="47.846" height="47.838" viewBox="0 0 47.846 47.838">
  <g id="icon" transform="translate(0.506 0.5)">
    <path id="Path_4226" data-name="Path 4226" d="M44.872,32.659,41.24,29.027a6.659,6.659,0,0,0-9.413,0l-2.443,2.443a2.554,2.554,0,0,1-3.467.156A84.791,84.791,0,0,1,15.2,20.9a2.564,2.564,0,0,1,.156-3.467l2.443-2.443a6.659,6.659,0,0,0,0-9.413L14.161,1.949a6.659,6.659,0,0,0-9.413,0A16.268,16.268,0,0,0,2.973,22.861,88.044,88.044,0,0,0,23.959,43.838a16.267,16.267,0,0,0,9.413,3c.457,0,.915-.018,1.363-.055a16.27,16.27,0,0,0,10.136-4.711,6.659,6.659,0,0,0,0-9.413ZM25.011,42.347A86.431,86.431,0,0,1,4.464,21.8,14.4,14.4,0,0,1,6.038,3.248a4.815,4.815,0,0,1,6.824,0l3.632,3.632a4.815,4.815,0,0,1,0,6.824l-.146.146L10.383,7.886a.912.912,0,0,0-1.29,1.29l5.965,5.965-1,1a4.372,4.372,0,0,0-.265,5.928,85.993,85.993,0,0,0,10.95,10.95,4.372,4.372,0,0,0,5.928-.265l1-1L42.026,42.109a14.369,14.369,0,0,1-17.015.238Zm18.562-1.564-.156.156c-.018-.018-.037-.046-.055-.064L32.97,30.472l.156-.146a4.815,4.815,0,0,1,6.824,0l3.632,3.632A4.789,4.789,0,0,1,45,37.37a4.852,4.852,0,0,1-1.427,3.412Zm0,0" transform="translate(0.02)" fill="#1c439b" stroke="#1c439b" stroke-width="1"/>
    <path id="Path_4228" data-name="Path 4228" d="M148.941,312.713c-1.875-1.665-3.7-3.44-5.407-5.269a.913.913,0,1,0-1.336,1.244c1.747,1.875,3.613,3.687,5.525,5.388a.907.907,0,0,0,.6.229.914.914,0,0,0,.613-1.592Zm0,0" transform="translate(-127.574 -279.058)" fill="#1c439b" stroke="#1c439b" stroke-width="1"/>
  </g>
</svg>
