<svg xmlns="http://www.w3.org/2000/svg" width="135.433" height="38.904" viewBox="0 0 135.433 38.904">
  <g id="Logo_Typo" data-name="Logo Typo" transform="translate(35.014)">
    <path id="Path_4207" data-name="Path 4207" d="M111.37,22.329a11.168,11.168,0,0,0-7.606-3.086,10.918,10.918,0,0,0-7.17,2.837,10.522,10.522,0,0,0-11.285-2c-.062-.374-.156-.779-.218-1.153-1.9,0-3.834,0-5.736-.031H78.7s-.249.405-.343.592L76.3,23.233c.966,0,1.964.031,2.93.031,0,7.014.031,14.028.031,21.042h5.892c0-4.458.031-8.916.031-13.342a7.947,7.947,0,0,1,.436-3.211,4.1,4.1,0,0,1,7.544,0A8.1,8.1,0,0,1,93.6,31c.031,4.427.031,8.884.062,13.311h5.861V30.777a6.977,6.977,0,0,1,.53-3.3c1-1.933,3.678-2.556,5.674-1.715a4.088,4.088,0,0,1,1.964,1.652,6.116,6.116,0,0,1,.53,3.086V44.088h5.611c.031-4.676.062-9.321.125-14C113.989,27.691,114.02,24.7,111.37,22.329Z" transform="translate(-86.967 -13.008)" fill="#1b1715"/>
    <path id="Path_4208" data-name="Path 4208" d="M191.189,18.6h6.889v1.683c0,4.427,0,8.822-.031,13.249a4.342,4.342,0,0,0,1.621,3.491,4.125,4.125,0,0,0,4.489.655c1.621-.655,2.182-2.089,2.307-3.741.031-.374,0-.717,0-1.091V18.662h5.923c-.031.436,0,.842,0,1.216,0,4.582.031,9.134-.031,13.716a4.469,4.469,0,0,0,6.765,3.8,3.393,3.393,0,0,0,1.715-2.93c.062-1.153.031-2.276.031-3.429V18.694h5.954v1.34c0,3.242.062,6.484.062,9.726-.031,2.93.187,6.016-1.216,8.7a11.389,11.389,0,0,1-4.551,4.458,8.811,8.811,0,0,1-7.045.748,6.735,6.735,0,0,1-3.4-2c-.218-.249-.468-.53-.717-.779.062.062-.873.9-.966.966a5.709,5.709,0,0,1-1.122.811,9.926,9.926,0,0,1-2.587,1.091,10.739,10.739,0,0,1-5.7-.125,9.914,9.914,0,0,1-4.925-3.3,11.807,11.807,0,0,1-1.185-1.87,9.765,9.765,0,0,1-1.029-2.9,15.83,15.83,0,0,1-.374-3.429c.031-1.59.094-3.149.094-4.707,0-.966-.031-1.933-.031-2.9V22.84H189.1Z" transform="translate(-163.749 -12.802)" fill="#1b1715"/>
    <path id="Path_4209" data-name="Path 4209" d="M25.428,43.976H19.567V42.355a1.922,1.922,0,0,0-.873.062A12.532,12.532,0,0,1,3.17,39.705,12.29,12.29,0,0,1,.146,29.387a12.326,12.326,0,0,1,6.048-9.071,12.7,12.7,0,0,1,15.961,2.4,12.515,12.515,0,0,1,3.273,8.292c.094,4.146.031,8.323.031,12.469C25.428,43.571,25.459,43.664,25.428,43.976ZM12.647,37.928a6.474,6.474,0,0,0,6.827-6.671,6.533,6.533,0,0,0-6.609-6.765,6.719,6.719,0,1,0-.218,13.436Z" transform="translate(-35 -12.74)" fill="#1b1715"/>
    <path id="Path_4210" data-name="Path 4210" d="M340.06,44.045H334.2V42.424a1.922,1.922,0,0,0-.873.062A12.532,12.532,0,0,1,317.8,39.774a12.145,12.145,0,0,1-3.055-10.287,12.205,12.205,0,0,1,6.016-9.071,12.7,12.7,0,0,1,15.961,2.4A12.515,12.515,0,0,1,340,31.108c.094,4.146.031,8.323.031,12.469A1.308,1.308,0,0,1,340.06,44.045ZM327.247,38a6.474,6.474,0,0,0,6.827-6.671,6.533,6.533,0,0,0-6.609-6.765A6.719,6.719,0,1,0,327.247,38Z" transform="translate(-250.145 -12.809)" fill="#1b1715"/>
    <path id="Path_4206" data-name="Path 4206" d="M378.1,56.08c1.185-2.026,2.276-3.772,3.336-5.611A11.531,11.531,0,0,0,385.3,49.44a5.02,5.02,0,0,0,3.024-4.676c.062-3.523.031-7.045.031-10.568V25h5.923v1.153c0,5.954,0,11.939-.031,17.893-.031,4.832-2.244,9.165-7.17,10.973a21.2,21.2,0,0,1-6.609,1.091C380.22,56.111,378.692,56.08,378.1,56.08Z" transform="translate(-293.859 -17.207)" fill="#1b1715"/>
    <path id="Path_4211" data-name="Path 4211" d="M416.967,5.767H411.2V0h5.767Z" transform="translate(-316.641)" fill="#1b1715"/>
  </g>
</svg>
