<svg xmlns="http://www.w3.org/2000/svg" width="1013.651" height="291.179" viewBox="0 0 1013.651 291.179">
  <g id="Logo_Typo" data-name="Logo Typo" transform="translate(35.014)">
    <path id="Path_4207" data-name="Path 4207" d="M338.781,44.565c-15.866-14.232-35.231-23.332-56.929-23.1A81.716,81.716,0,0,0,228.189,42.7c-21.932-21-56.7-27.3-84.461-14.932-.467-2.8-1.167-5.833-1.633-8.633-14.232,0-28.7,0-42.93-.233h-4.9S92.4,21.933,91.7,23.333l-15.4,28c7.233,0,14.7.233,21.932.233,0,52.5.233,104.993.233,157.489h44.1c0-33.364.233-66.729.233-99.86,0-8.166,0-16.565,3.266-24.032a30.683,30.683,0,0,1,56.463,0c3.266,7.466,3.266,16.1,3.266,24.265.233,33.131.233,66.5.467,99.626h43.864V107.794c0-8.4,0-17.265,3.966-24.732C261.553,68.6,281.619,63.93,296.551,70.23A30.6,30.6,0,0,1,311.25,82.6c3.966,7,3.966,15.166,3.966,23.1V207.42h42c.233-35,.467-69.762.933-104.759C358.38,84.7,358.613,62.3,338.781,44.565Z" transform="translate(70.908 25.197)" fill="#fff"/>
    <path id="Path_4208" data-name="Path 4208" d="M204.732,18.6H256.3V31.2c0,33.131,0,66.029-.233,99.16,0,10.733,3.966,19.132,12.132,26.131,10.5,8.866,21.932,9.566,33.6,4.9,12.132-4.9,16.332-15.632,17.265-28,.233-2.8,0-5.366,0-8.166V19.067h44.33c-.233,3.266,0,6.3,0,9.1,0,34.3.233,68.362-.233,102.659,0,13.532,6.3,22.865,17.5,29.165,10.966,6.3,22.165,5.6,33.131-.7,8.4-4.9,12.366-12.6,12.832-21.932.467-8.633.233-17.032.233-25.665V19.3h44.564V29.333c0,24.265.467,48.53.467,72.795-.233,21.932,1.4,45.03-9.1,65.1-7.466,14.232-20.065,25.432-34.064,33.364-16.332,9.333-34.3,10.966-52.73,5.6-10.033-2.8-18.665-7.233-25.432-14.932-1.633-1.867-3.5-3.966-5.366-5.833.467.467-6.533,6.766-7.233,7.233a42.725,42.725,0,0,1-8.4,6.066,74.292,74.292,0,0,1-19.365,8.166,80.373,80.373,0,0,1-42.7-.933,74.2,74.2,0,0,1-36.864-24.732,88.362,88.362,0,0,1-8.866-14c-3.966-7-6.066-14-7.7-21.7-1.633-8.4-3.033-17.032-2.8-25.665.233-11.9.7-23.565.7-35.231,0-7.233-.233-14.466-.233-21.7v-12.6H189.1Z" transform="translate(227.687 24.797)" fill="#fff"/>
    <path id="Path_4209" data-name="Path 4209" d="M190.4,209.106H146.541V196.973c-2.566,0-4.9-.467-6.533.467-41.53,23.1-89.127,10.5-116.192-20.3C4.685,154.976-3.248,129.545,1.185,99.914c4.666-29.865,19.6-52.263,45.263-67.9,38.264-23.332,89.36-15.866,119.458,17.965a93.669,93.669,0,0,1,24.5,62.062c.7,31.031.233,62.3.233,93.327C190.4,206.073,190.638,206.773,190.4,209.106Zm-95.66-45.263c29.865.933,50.863-21.232,51.1-49.93.233-29.165-21-49.93-49.463-50.63-28.7-.7-51.33,20.765-51.8,49.7C43.882,140.511,66.28,165.009,94.745,163.842Z" transform="translate(-35 24.678)" fill="#fff"/>
    <path id="Path_4210" data-name="Path 4210" d="M505.237,208.972H461.374V196.84c-2.566,0-4.9-.467-6.533.467-41.53,23.1-89.127,10.5-116.192-20.3-19.365-21.932-27.3-47.6-22.865-76.995,4.433-29.865,19.365-52.263,45.03-67.9,38.264-23.332,89.36-15.866,119.458,17.965a93.669,93.669,0,0,1,24.5,62.062c.7,31.031.233,62.3.233,93.327C505.237,205.939,505.237,206.639,505.237,208.972Zm-95.893-45.263c29.864.933,50.863-21.232,51.1-49.93.233-29.165-21-49.93-49.463-50.63-28.7-.7-51.33,20.765-51.8,49.7C358.714,140.377,381.113,164.876,409.344,163.709Z" transform="translate(394.772 24.811)" fill="#fff"/>
    <path id="Path_4206" data-name="Path 4206" d="M378.1,257.617c8.866-15.166,17.032-28.231,24.965-42A86.309,86.309,0,0,0,432,207.92c14.466-6.533,22.165-19.132,22.632-35,.467-26.365.233-52.73.233-79.094V25h44.33v8.633c0,44.563,0,89.36-.233,133.924-.233,36.164-16.8,68.6-53.663,82.127-15.632,5.833-28.231,6.766-49.463,8.166C393.965,257.85,382.533,257.617,378.1,257.617Z" transform="translate(479.446 33.329)" fill="#fff"/>
    <path id="Path_4211" data-name="Path 4211" d="M454.364,43.164H411.2V0h43.164Z" transform="translate(523.573)" fill="#fff"/>
  </g>
</svg>
