<?xml version="1.0" standalone="no"?>
<!DOCTYPE svg PUBLIC "-//W3C//DTD SVG 20010904//EN"
 "http://www.w3.org/TR/2001/REC-SVG-20010904/DTD/svg10.dtd">
<svg version="1.0" xmlns="http://www.w3.org/2000/svg"
 width="104.000000pt" height="241.000000pt" viewBox="0 0 104.000000 241.000000"
 preserveAspectRatio="xMidYMid meet">
<metadata>
Created by potrace 1.16, written by Peter Selinger 2001-2019
</metadata>
<g transform="translate(0.000000,241.000000) scale(0.100000,-0.100000)"
fill="#000000" stroke="none">
<path d="M668 2388 c-3 -7 -1 -46 3 -87 4 -41 8 -127 7 -190 -1 -64 7 -215 17
-335 17 -197 17 -232 5 -350 -8 -72 -15 -158 -16 -191 -1 -33 -3 -65 -3 -70
-1 -11 -53 -36 -83 -39 -10 -2 -26 -10 -36 -19 -22 -20 -36 -12 -52 33 -12 33
-67 80 -93 80 -15 -1 34 -39 49 -40 10 0 44 -57 44 -74 0 -4 -16 1 -37 9 -45
19 -54 12 -20 -16 27 -20 38 -47 15 -33 -10 6 -10 5 -1 -7 8 -10 23 -14 43
-11 18 3 30 0 30 -7 0 -6 -6 -11 -12 -11 -10 0 -10 -2 0 -9 10 -6 9 -11 -4
-22 -16 -12 -17 -12 -10 1 5 10 3 10 -6 -2 -13 -15 -16 -13 -41 13 -30 32 -49
36 -66 15 -10 -12 -8 -17 8 -25 13 -7 22 -8 26 -1 3 5 21 -4 39 -21 l33 -30
-31 -32 c-17 -18 -34 -32 -37 -30 -4 2 -12 -4 -19 -12 -19 -23 6 -19 29 4 11
11 22 17 24 14 3 -3 18 15 33 39 15 23 37 57 48 75 11 17 34 39 51 49 16 9 42
27 57 40 15 12 41 25 58 29 29 6 33 20 7 20 -7 0 -12 5 -12 10 -1 6 -7 21 -14
34 -7 13 -9 21 -4 18 6 -4 10 10 11 29 1 20 7 64 13 97 16 82 16 353 0 497
-16 143 -23 520 -10 520 14 0 11 17 -7 34 -19 19 -30 20 -36 4z"/>
<path d="M740 733 c-11 -31 -10 -30 -59 -96 -31 -42 -39 -47 -73 -47 -26 0
-54 -11 -92 -35 -54 -34 -72 -58 -59 -77 3 -6 1 -8 -5 -4 -6 3 -13 -6 -17 -24
-4 -16 -11 -32 -16 -35 -5 -4 -14 -15 -20 -27 -9 -16 -8 -19 3 -13 7 3 5 0 -5
-8 -9 -8 -15 -21 -11 -30 3 -8 1 -18 -5 -22 -6 -3 -11 -27 -11 -52 l0 -46 20
26 c11 14 35 29 53 33 41 9 66 26 99 70 l27 36 10 -39 c14 -49 14 -66 -1 -81
-9 -9 -9 -12 0 -12 7 0 12 -15 13 -37 1 -50 26 -90 80 -128 24 -18 49 -41 55
-53 9 -18 13 -20 26 -9 20 16 45 72 53 122 4 22 16 60 27 85 11 25 25 55 31
67 5 12 7 38 4 57 -9 57 0 73 45 80 22 4 49 11 59 16 16 9 15 13 -18 45 -20
19 -44 35 -54 35 -12 0 -24 13 -33 34 -16 39 -76 102 -106 111 -22 7 -25 21
-10 59 5 14 7 26 5 26 -3 0 -10 -12 -15 -27z"/>
</g>
</svg>
